<svg width="56" height="40" xmlns="http://www.w3.org/2000/svg" xmlns:xlink="http://www.w3.org/1999/xlink"><defs><rect id="a" width="56" height="40" rx="1"/><linearGradient x1="50%" y1="0%" x2="50%" y2="100%" id="c"><stop stop-color="#FFF" offset="0%"/><stop stop-color="#F0F0F0" offset="100%"/></linearGradient><linearGradient x1="50%" y1="0%" x2="50%" y2="100%" id="d"><stop stop-color="#FF2E3B" offset="0%"/><stop stop-color="#FC0D1B" offset="100%"/></linearGradient></defs><g fill="none" fill-rule="evenodd"><mask id="b" fill="#fff"><use xlink:href="#a"/></mask><use fill="#FFF" xlink:href="#a"/><path fill="#0A17A7" mask="url(#b)" d="M0 0H56V40H0z"/><path d="M9 8.153L-.901-.333h2.234l.194.062 9.246 6.604h2.465L24.333-.6V.997c0 .294-.17.63-.409.8L15 8.172v2.341l8.967 7.687c.377.322.195.8-.303.8h-.66c-.257 0-.593-.106-.8-.254l-8.977-6.413h-2.465L-.333 19.268v-2.106L9 10.495V8.153z" stroke="#FFF" stroke-width=".667" fill="#FF2E3B" mask="url(#b)"/><path d="M0 6.667V12h9.333v7.332c0 .369.302.668.676.668h3.982a.675.675 0 0 0 .676-.668V12h10a.671.671 0 0 0 .666-.675V7.342a.677.677 0 0 0-.667-.675h-10V0H9.334v6.667H0z" fill="url(#c)" mask="url(#b)"/><path fill="url(#d)" mask="url(#b)" d="M0 8L10.6666667 8 10.6666667 6.66666667 10.6666667 0 13.3333333 0 13.3333333 6.66666667 13.3333333 8 24 8 24 10.6666667 13.3333333 10.6666667 13.3333333 12 13.3333333 18.6666667 10.6666667 18.6666667 10.6666667 12 10.6666667 10.6666667 0 10.6666667z"/><path fill="#FFF" mask="url(#b)" d="M12 32.6666667L9.64885899 33.9027346 10.097887 31.2847007 8.19577393 29.4305987 10.8244295 29.0486327 12 26.6666667 13.1755705 29.0486327 15.8042261 29.4305987 13.902113 31.2847007 14.351141 33.9027346z"/><path fill="#FFF" mask="url(#b)" d="M40 34.6666667L38.1143819 35.2189514 38.6666667 33.3333333 38.1143819 31.4477153 40 32 41.8856181 31.4477153 41.3333333 33.3333333 41.8856181 35.2189514z"/><path fill="#FFF" mask="url(#b)" d="M40 9.33333333L38.1143819 9.88561808 38.6666667 8 38.1143819 6.11438192 40 6.66666667 41.8856181 6.11438192 41.3333333 8 41.8856181 9.88561808z"/><path fill="#FFF" mask="url(#b)" d="M48 17.3333333L46.1143819 17.8856181 46.6666667 16 46.1143819 14.1143819 48 14.6666667 49.8856181 14.1143819 49.3333333 16 49.8856181 17.8856181z"/><path fill="#FFF" mask="url(#b)" d="M32 20L30.1143819 20.5522847 30.6666667 18.6666667 30.1143819 16.7810486 32 17.3333333 33.8856181 16.7810486 33.3333333 18.6666667 33.8856181 20.5522847z"/><path fill="#FFF" mask="url(#b)" d="M44 23.3333333L43.057191 23.6094757 43.3333333 22.6666667 43.057191 21.7238576 44 22 44.942809 21.7238576 44.6666667 22.6666667 44.942809 23.6094757z"/></g></svg>