<svg width="56" height="40" xmlns="http://www.w3.org/2000/svg" xmlns:xlink="http://www.w3.org/1999/xlink"><defs><rect id="a" width="56" height="40" rx="1"/></defs><g fill="none" fill-rule="evenodd"><mask id="b" fill="#fff"><use xlink:href="#a"/></mask><rect stroke="#F5F5F5" stroke-width=".5" x=".25" y=".25" width="55.5" height="39.5" rx="1"/><path fill="#FF3131" mask="url(#b)" d="M40 0H56V40H40z"/><path fill="#FF3131" mask="url(#b)" d="M0 0H16V40H0z"/><path d="M30.903 19.763c-.13.131-.208.098-.172-.085L32 13.333l-2.667 1.334-1.333-4-1.333 4L24 13.333l1.269 6.345c.036.178-.037.22-.172.085l-2.194-2.193a.332.332 0 0 0-.469-.004l-1.1 1.1-2.667-1.333L20 20l-1.101 1.101a.326.326 0 0 0 .006.47l3.762 3.762h4l.666 4h1.334l.666-4h4l3.762-3.761a.333.333 0 0 0 .006-.47L36 20l1.333-2.667-2.666 1.334-1.101-1.101a.327.327 0 0 0-.47.004l-2.193 2.193z" fill="#FF3131" mask="url(#b)"/></g></svg>