<svg width="56" height="40" xmlns="http://www.w3.org/2000/svg" xmlns:xlink="http://www.w3.org/1999/xlink"><defs><rect id="a" width="56" height="40" rx="1"/></defs><g fill="none" fill-rule="evenodd"><mask id="b" fill="#fff"><use xlink:href="#a"/></mask><use fill="#FFF" xlink:href="#a"/><path fill="#0A17A7" mask="url(#b)" d="M0 0H56V40H0z"/><path d="M13.347 26.667H0V13.333h13.347L-5.547.59l2.982-4.422 23.898 16.12V-2.667h13.334v14.954l23.898-16.12L61.547.59 42.653 13.333H56v13.334H42.653L61.547 39.41l-2.982 4.422-23.898-16.12v14.954H21.333V27.713l-23.898 16.12-2.982-4.422 18.894-12.744z" fill="#FFF" mask="url(#b)"/><path d="M37.336 12.664L62.666-4" stroke="#DB1F35" stroke-width=".667" stroke-linecap="round" mask="url(#b)"/><path d="M40.026 42.7l22.707-15.305" stroke="#DB1F35" stroke-width=".667" stroke-linecap="round" mask="url(#b)" transform="matrix(1 0 0 -1 0 70.096)"/><path d="M16.011 12.62L-7.675-3.341" stroke="#DB1F35" stroke-width=".667" stroke-linecap="round" mask="url(#b)"/><path d="M18.58 44.62L-7.675 27.21" stroke="#DB1F35" stroke-width=".667" stroke-linecap="round" mask="url(#b)" transform="matrix(1 0 0 -1 0 71.83)"/><path fill="#E6273E" mask="url(#b)" d="M0 24L24 24 24 40 32 40 32 24 56 24 56 16 32 16 32 0 24 0 24 16 0 16z"/></g></svg>