<svg width="56" height="40" xmlns="http://www.w3.org/2000/svg" xmlns:xlink="http://www.w3.org/1999/xlink"><defs><rect id="a" width="56" height="40" rx="1"/><linearGradient x1="50%" y1="0%" x2="50%" y2="100%" id="e"><stop stop-color="#FFF" offset="0%"/><stop stop-color="#F0F0F0" offset="100%"/></linearGradient><path d="M4 5.333a1.333 1.333 0 1 1 0-2.666 1.333 1.333 0 0 1 0 2.666zm5.333 0a1.333 1.333 0 1 1 0-2.666 1.333 1.333 0 0 1 0 2.666zm5.334 0a1.333 1.333 0 1 1 0-2.666 1.333 1.333 0 0 1 0 2.666zm5.333 0a1.333 1.333 0 1 1 0-2.666 1.333 1.333 0 0 1 0 2.666zM6.667 8a1.333 1.333 0 1 1 0-2.667 1.333 1.333 0 0 1 0 2.667zM12 8a1.333 1.333 0 1 1 0-2.667A1.333 1.333 0 0 1 12 8zm5.333 0a1.333 1.333 0 1 1 0-2.667 1.333 1.333 0 0 1 0 2.667zM20 10.667A1.333 1.333 0 1 1 20 8a1.333 1.333 0 0 1 0 2.667zm-5.333 0a1.333 1.333 0 1 1 0-2.667 1.333 1.333 0 0 1 0 2.667zm-5.334 0a1.333 1.333 0 1 1 0-2.667 1.333 1.333 0 0 1 0 2.667zm-5.333 0A1.333 1.333 0 1 1 4 8a1.333 1.333 0 0 1 0 2.667zm2.667 2.666a1.333 1.333 0 1 1 0-2.666 1.333 1.333 0 0 1 0 2.666zm5.333 0a1.333 1.333 0 1 1 0-2.666 1.333 1.333 0 0 1 0 2.666zm5.333 0a1.333 1.333 0 1 1 0-2.666 1.333 1.333 0 0 1 0 2.666zM20 16a1.333 1.333 0 1 1 0-2.667A1.333 1.333 0 0 1 20 16zm-5.333 0a1.333 1.333 0 1 1 0-2.667 1.333 1.333 0 0 1 0 2.667zm-5.334 0a1.333 1.333 0 1 1 0-2.667 1.333 1.333 0 0 1 0 2.667zM4 16a1.333 1.333 0 1 1 0-2.667A1.333 1.333 0 0 1 4 16z" id="d"/><filter x="-2.7%" y="-3.8%" width="105.4%" height="115%" filterUnits="objectBoundingBox" id="c"><feOffset dy="1" in="SourceAlpha" result="shadowOffsetOuter1"/><feColorMatrix values="0 0 0 0 0 0 0 0 0 0 0 0 0 0 0 0 0 0 0.06 0" in="shadowOffsetOuter1"/></filter></defs><g fill="none" fill-rule="evenodd"><mask id="b" fill="#fff"><use xlink:href="#a"/></mask><use fill="#FFF" xlink:href="#a"/><path d="M0 0h56v2.667H0V0zm0 5.333h56V8H0V5.333zm0 5.334h56v2.666H0v-2.666zM0 16h56v2.667H0V16zm0 5.333h56V24H0v-2.667zm0 5.334h56v2.666H0v-2.666zM0 32h56v2.667H0V32zm0 5.333h56V40H0v-2.667z" fill="#D02F44" mask="url(#b)"/><path fill="#46467F" mask="url(#b)" d="M0 0H24V18.667H0z"/><g mask="url(#b)"><use fill="#000" filter="url(#c)" xlink:href="#d"/><use fill="url(#e)" xlink:href="#d"/></g></g></svg>