<?xml version="1.0" encoding="UTF-8"?>
<svg width="72px" height="54px" viewBox="0 0 72 54" version="1.1" xmlns="http://www.w3.org/2000/svg" xmlns:xlink="http://www.w3.org/1999/xlink">
    <!-- Generator: Sketch 48.1 (47250) - http://www.bohemiancoding.com/sketch -->
    <title>Logo/Purple</title>
    <desc>Created with Sketch.</desc>
    <defs>
        <polygon id="path-1" points="0.898345946 6.87272727 5.83229189 6.87272727 5.83229189 0.280014545 0.898345946 0.280014545 0.898345946 6.87272727"></polygon>
    </defs>
    <g id="Logo/Purple" stroke="none" stroke-width="1" fill="none" fill-rule="evenodd" transform="translate(0.000000, -1.000000)">
        <g transform="translate(0.000000, 1.000000)">
            <path d="M5.49311351,34.5650073 L7.36608649,36.3244255 C8.73311351,37.60668 8.55700541,39.3798436 7.30576216,40.7376982 C6.06035676,42.0876982 4.33332973,42.3783164 2.96727568,41.0960618 L1.09332973,39.3366436 L5.49311351,34.5650073 L5.49311351,34.5650073 Z M3.19787027,39.3867164 L3.91884324,40.0641709 C4.58435676,40.6895891 5.51451892,40.36068 6.1596,39.6606436 C6.81051892,38.9547164 7.08100541,37.9807527 6.41549189,37.3563164 L5.69451892,36.6798436 L3.19787027,39.3867164 L3.19787027,39.3867164 Z" id="Fill-1" fill="#5700FF"></path>
            <polygon id="Fill-3" fill="#5700FF" points="11.0271892 39.3963382 12.3047027 40.3104109 8.56848649 45.6308836 7.29097297 44.7168109"></polygon>
            <path d="M11.3664649,47.4759164 L14.3564108,41.6949709 L16.7256,42.9438436 C18.0731676,43.6527164 18.1889514,44.9418436 17.6898162,45.9069709 C17.264627,46.7287527 16.4123027,47.2932982 15.3595459,47.0380255 L15.7234378,49.7704255 L14.1102486,48.9211527 L13.8777081,46.34388 L13.7531676,46.2771164 L12.7548973,48.2073709 L11.3664649,47.4759164 Z M15.1114378,43.6517345 L14.3778162,45.06948 L15.2924108,45.5515527 C15.7497081,45.7920982 16.1067892,45.5103164 16.2848432,45.16668 C16.4628973,44.8220618 16.4833297,44.3743527 16.0260324,44.1328255 L15.1114378,43.6517345 Z" id="Fill-5" fill="#5700FF"></path>
            <polygon id="Fill-7" fill="#5700FF" points="18.6675568 50.9670655 20.6806378 44.7708109 24.6649622 46.0884109 24.237827 47.4011018 21.7421514 46.5753927 21.3568541 47.7633927 23.5489622 48.4879745 23.1315568 49.7741564 20.9394486 49.0495745 20.5823676 50.1462655 23.157827 50.9984836 22.7316649 52.3111745"></polygon>
            <path d="M31.648573,52.5285491 C30.9324649,53.3297127 29.8534378,53.7695673 28.7131135,53.5987309 C26.9140865,53.3277491 25.6774378,51.6203673 25.9450054,49.8049855 C26.2164649,47.9709491 27.8909514,46.7112764 29.6899784,46.9812764 C30.8312757,47.1530945 31.7458703,47.8943673 32.1983027,48.8712764 C32.3228432,48.8035309 30.7758162,49.5850582 30.7758162,49.5850582 C30.5510595,49.0529127 30.0606811,48.6444764 29.4584108,48.5541491 C28.5117081,48.4117855 27.6554919,49.0764764 27.5134378,50.0406218 C27.3704108,51.0047673 27.9989514,51.8834945 28.9446811,52.0258582 C29.5566811,52.1181491 30.1326811,51.8795673 30.5111676,51.4387309 L31.648573,52.5285491 Z" id="Fill-9" fill="#5700FF"></path>
            <g id="Group-13" transform="translate(33.081081, 47.127273)">
                <mask id="mask-2" fill="white">
                    <use xlink:href="#path-1"></use>
                </mask>
                <g id="Clip-12"></g>
                <polygon id="Fill-11" fill="#5700FF" mask="url(#mask-2)" points="0.929481081 1.77532364 0.898345946 0.394887273 5.80018378 0.280014545 5.83229189 1.66143273 4.16364324 1.69972364 4.28137297 6.83659636 2.71585946 6.87292364 2.59812973 1.73605091"></polygon>
            </g>
            <path d="M51.246973,49.9175018 C50.9239459,50.9464473 50.1222162,51.7976836 49.014,52.1177564 C47.2655676,52.6233927 45.4402703,51.5865927 44.9391892,49.8222655 C44.4332432,48.0392836 45.4402703,46.1934655 47.1887027,45.6878291 C48.2969189,45.3677564 49.4333514,45.6593564 50.2467568,46.3593927 C50.3314054,46.2464836 49.2436216,47.6033564 49.2436216,47.6033564 C48.8213514,47.2135745 48.2083784,47.0466655 47.6226486,47.21652 C46.7031892,47.4816109 46.1962703,48.4447745 46.4618919,49.3814291 C46.7284865,50.3190655 47.6615676,50.85612 48.5800541,50.5900473 C49.1755135,50.4182291 49.6007027,49.9607018 49.7641622,49.4020473 L51.246973,49.9175018 Z" id="Fill-14" fill="#5700FF"></path>
            <polygon id="Fill-16" fill="#5700FF" points="54.5682162 50.0243236 51.7787027 44.1442145 53.208 43.4539964 55.4069189 48.0881782 57.5036757 47.07396 58.0942703 48.3208691"></polygon>
            <path d="M58.981427,45.0983455 L56.6599135,41.6796545 L57.9598054,40.7812909 L60.2813189,44.1999818 C60.6092108,44.6840182 61.2289946,44.7262364 61.6318054,44.4483818 C62.0336432,44.1705273 62.2185081,43.5716182 61.8906162,43.0875818 L59.5691027,39.6688909 L60.8689946,38.7705273 L63.1905081,42.1892182 C64.0321297,43.4312182 63.5699676,44.9088545 62.4636973,45.6736909 C61.357427,46.4385273 59.8240216,46.3393636 58.981427,45.0983455" id="Fill-18" fill="#5700FF"></path>
            <path d="M67.4993189,36.7396364 C68.2241838,36.2153455 69.0346703,36.5295273 69.4656973,36.9792 C70.1175892,37.6586182 70.3987784,38.7543273 69.2672108,39.8598545 L67.2317514,41.8490182 L62.7366162,37.1647636 L64.6368324,35.3071636 C65.4998595,34.4647636 66.5409405,34.4215636 67.2658054,35.1756 C67.5197514,35.4416727 67.8748865,36.0828 67.4993189,36.7396364 L67.4993189,36.7396364 Z M66.2111027,37.2737455 C66.4397514,37.0508727 66.4582378,36.7425818 66.2295892,36.5049818 C65.9951027,36.2605091 65.7109946,36.1819636 65.4414811,36.4450909 L64.8216973,37.0508727 L65.6049405,37.8667636 L66.2111027,37.2737455 Z M66.4981297,38.7975273 L67.4117514,39.7498909 L68.1327243,39.0449455 C68.4829946,38.7022909 68.4168324,38.2938545 68.1881838,38.0552727 C67.9789946,37.8382909 67.5898054,37.7312727 67.2122919,38.1004364 L66.4981297,38.7975273 Z" id="Fill-20" fill="#5700FF"></path>
            <path d="M4.86856216,17.4411164 C0.294616216,16.1883164 0.261535135,13.8476618 0.294616216,12.4299164 C0.326724324,10.1540618 3.03937297,8.04511636 6.24045405,8.04511636 C9.27904865,8.04511636 12.4811027,9.39708 12.5132108,13.15548 L8.2331027,13.15548 C8.20099459,12.0008618 7.22121081,11.8035164 6.50218378,11.8035164 C5.52142703,11.8035164 4.86856216,12.2649709 4.90164324,12.9571527 C4.93375135,13.4186073 5.32585946,13.8800618 6.24045405,14.1107891 L8.82175135,14.8039527 C12.5132108,15.8250436 12.9714811,18.2982436 12.9714811,19.2879164 C12.9714811,22.55148 9.57288649,24.1007891 6.37083243,24.1007891 C3.26704865,24.1007891 0.0328864865,22.2215891 -0.000194594595,18.79308 L4.24780541,18.79308 C4.27991351,19.6835891 5.26067027,20.5731164 6.50218378,20.5731164 C7.51504865,20.5407164 8.36445405,20.07828 8.36445405,19.2879164 C8.36445405,18.6281345 7.97234595,18.2648618 6.86121081,17.9683527 L4.86856216,17.4411164 Z" id="Fill-22" fill="#5700FF"></path>
            <path d="M29.1118378,15.6279927 L29.1118378,23.7711927 L24.570973,23.7711927 L24.570973,15.4630473 C24.5378919,13.5180655 23.3615676,12.4959927 22.0548649,12.4959927 C20.682,12.4959927 19.4083784,13.2873382 19.4083784,15.6279927 L19.4083784,23.7711927 L14.8665405,23.7711927 L14.8665405,8.37432 L19.4083784,8.37432 L19.4083784,10.6167927 C20.1264324,9.00072 21.7600541,8.07781091 23.3936757,8.07781091 C25.8115135,8.07781091 27.4461081,9.00072 28.2955135,10.7817382 C29.7647027,8.37432 31.7914054,8.04442909 32.8694595,8.04442909 C36.4957297,8.04442909 38.7510811,10.3850836 38.7510811,15.0339927 L38.7510811,23.7711927 L34.2413514,23.7711927 L34.2413514,15.5622109 C34.2413514,13.5504655 33.065027,12.4959927 31.7252432,12.4959927 C30.2881622,12.4959927 29.1118378,13.38552 29.1118378,15.6279927" id="Fill-25" fill="#5700FF"></path>
            <path d="M41.4622703,23.7717818 L45.971027,23.7717818 L45.971027,8.37490909 L41.4622703,8.37490909 L41.4622703,23.7717818 Z M43.7166486,0 C45.252,0 46.4935135,1.15363636 46.4935135,2.67054545 C46.4935135,4.18745455 45.252,5.37447273 43.7166486,5.37447273 C42.1812973,5.37447273 40.8736216,4.18745455 40.8736216,2.67054545 C40.8736216,1.15363636 42.1812973,0 43.7166486,0 L43.7166486,0 Z" id="Fill-27" fill="#5700FF"></path>
            <polygon id="Fill-29" fill="#5700FF" points="48.8461622 23.7717818 53.388 23.7717818 53.388 0 48.8461622 0"></polygon>
            <path d="M66.5552432,14.7044945 C66.3265946,12.8252945 64.6277838,12.0673309 63.3531892,12.0673309 C62.0785946,12.0673309 60.3476757,12.7595127 59.9555676,14.7044945 L66.5552432,14.7044945 Z M70.2797838,20.9694764 C68.7444324,23.2767491 65.9014054,24.1004945 63.3201081,24.1004945 C58.9427027,24.1004945 55.3485405,20.8703127 55.3485405,16.0230764 C55.3485405,11.1768218 58.9427027,8.04482182 63.3201081,8.04482182 C67.6663784,8.04482182 71.1291892,11.3093673 71.1291892,16.15464 C71.1291892,16.5512945 71.0961081,17.1776945 71.064,17.5723855 L59.8903784,17.5723855 C60.119027,19.3534036 62.0464865,20.1447491 63.647027,20.1447491 C64.8885405,20.1447491 66.2283243,19.6832945 66.9794595,18.6936218 L70.2797838,20.9694764 Z" id="Fill-30" fill="#5700FF"></path>
        </g>
    </g>
</svg>