<?xml version="1.0" encoding="UTF-8"?>
<svg width="21px" height="22px" viewBox="0 0 21 22" version="1.1" xmlns="http://www.w3.org/2000/svg" xmlns:xlink="http://www.w3.org/1999/xlink">
    <!-- Generator: Sketch 57.1 (83088) - https://sketch.com -->
    <title>upload icon</title>
    <desc>Created with Sketch.</desc>
    <g id="Design" stroke="none" stroke-width="1" fill="none" fill-rule="evenodd">
        <g id="Desktop---Entry-Form---Dragging-image" transform="translate(-1085.000000, -792.000000)" fill="#666666" fill-rule="nonzero">
            <g id="Bitmap" transform="translate(0.000000, 150.000000)">
                <g id="Bitmap-Copy" transform="translate(858.000000, 268.000000)">
                    <g id="form-/-image-uploader-copy" transform="translate(0.000000, 288.000000)">
                        <g id="upload-icon" transform="translate(225.500000, 85.000000)">
                            <path d="M22,16.9931741 L22,19.996587 C22,21.698521 20.7,23 19,23 L5,23 C3.3,23 2,21.698521 2,19.996587 L2,16.9931741 C2,16.3924915 2.4,15.9920364 3,15.9920364 C3.6,15.9920364 4,16.3924915 4,16.9931741 L4,19.996587 C4,20.5972696 4.4,20.9977247 5,20.9977247 L19,20.9977247 C19.6,20.9977247 20,20.5972696 20,19.996587 L20,16.9931741 C20,16.3924915 20.4,15.9920364 21,15.9920364 C21.6,15.9920364 22,16.3924915 22,16.9931741 Z M8.7,6.6814562 L11,4.37883959 L11,15.9920364 C11,16.592719 11.4,16.9931741 12,16.9931741 C12.6,16.9931741 13,16.592719 13,15.9920364 L13,4.37883959 L15.3,6.6814562 C15.5,6.88168373 15.7,6.9817975 16,6.9817975 C16.3,6.9817975 16.5,6.88168373 16.7,6.6814562 C17.1,6.28100114 17.1,5.68031854 16.7,5.27986348 L12.7,1.27531286 C12.6,1.17519909 12.5,1.07508532 12.4,1.07508532 C12.2,0.974971559 11.9,0.974971559 11.6,1.07508532 C11.5,1.17519909 11.4,1.17519909 11.3,1.27531286 L7.3,5.27986348 C6.9,5.68031854 6.9,6.28100114 7.3,6.6814562 C7.7,7.08191126 8.3,7.08191126 8.7,6.6814562 Z"></path>
                        </g>
                    </g>
                </g>
            </g>
        </g>
    </g>
</svg>