<?xml version="1.0" encoding="UTF-8"?>
<svg width="16px" height="16px" viewBox="0 0 16 16" version="1.1" xmlns="http://www.w3.org/2000/svg" xmlns:xlink="http://www.w3.org/1999/xlink">
    <!-- Generator: Sketch 48.1 (47250) - http://www.bohemiancoding.com/sketch -->
    <title>Social/Instagram</title>
    <desc>Created with Sketch.</desc>
    <defs>
        <polygon id="path-1" points="7.66236642 15.3295842 0 15.3295842 0 0.00483611881 7.66236642 0.00483611881 15.3247328 0.00483611881 15.3247328 15.3295842"></polygon>
    </defs>
    <g id="Social/Instagram/Default" stroke="none" stroke-width="1" fill="none" fill-rule="evenodd" transform="translate(-12.000000, -12.000000)">
        <g id="Social/Instagram" transform="translate(12.000000, 12.000000)">
            <g id="Page-1">
                <g id="Group-3" transform="translate(0.000000, 0.025580)">
                    <mask id="mask-2" fill="white">
                        <use xlink:href="#path-1"></use>
                    </mask>
                    <g id="Clip-2" opacity="0.87"></g>
                    <path d="M7.66237402,0.00483611881 C5.58138297,0.00483611881 5.32044547,0.0136567129 4.50320222,0.0509465347 C3.68760143,0.0881451089 3.13062653,0.217686178 2.64321267,0.407085624 C2.13934384,0.602902812 1.71203168,0.864904871 1.28605782,1.29087873 C0.86008396,1.71688301 0.598081901,2.14419517 0.402264713,2.648064 C0.212834851,3.13544745 0.083324198,3.69245275 0.0460952079,4.50802313 C0.00880538614,5.32529679 -1.52079204e-05,5.5862343 -1.52079204e-05,7.66722535 C-1.52079204e-05,9.74818598 0.00880538614,10.0091235 0.0460952079,10.8263971 C0.083324198,11.6419675 0.212834851,12.1989728 0.402264713,12.6863563 C0.598081901,13.1902251 0.86008396,13.6175373 1.28605782,14.0435415 C1.71203168,14.4695154 2.13934384,14.7315175 2.64321267,14.9273347 C3.13062653,15.1167341 3.68760143,15.2462752 4.50320222,15.2834737 C5.32044547,15.320794 5.58138297,15.3295842 7.66237402,15.3295842 C9.74336507,15.3295842 10.0042722,15.320794 10.8215458,15.2834737 C11.6371466,15.2462752 12.1941215,15.1167341 12.6815354,14.9273347 C13.1854042,14.7315175 13.6127164,14.4695154 14.0386902,14.0435415 C14.4646641,13.6175373 14.7266661,13.1902251 14.9224833,12.6863563 C15.1119132,12.1989728 15.2414238,11.6419675 15.2786528,10.8263971 C15.3159427,10.0091235 15.3247328,9.74818598 15.3247328,7.66722535 C15.3247328,5.5862343 15.3159427,5.32529679 15.2786528,4.50802313 C15.2414238,3.69245275 15.1119132,3.13544745 14.9224833,2.648064 C14.7266661,2.14419517 14.4646641,1.71688301 14.0386902,1.29087873 C13.6127164,0.864904871 13.1854042,0.602902812 12.6815354,0.407085624 C12.1941215,0.217686178 11.6371466,0.0881451089 10.8215458,0.0509465347 C10.0042722,0.0136567129 9.74336507,0.00483611881 7.66237402,0.00483611881 M7.66237402,1.38544158 C9.70832602,1.38544158 9.95064903,1.39325846 10.7586154,1.43012246 C11.5056893,1.4641882 11.9114063,1.58901481 12.1814381,1.69394947 C12.5390676,1.83294986 12.7943477,1.99898994 13.0624634,2.267136 C13.330579,2.53525164 13.4966495,2.79050139 13.6356195,3.14816127 C13.7405541,3.41816269 13.8653808,3.8238796 13.8994769,4.5709535 C13.9363409,5.37891992 13.9441274,5.62127335 13.9441274,7.66722535 C13.9441274,9.71314693 13.9363409,9.95550036 13.8994769,10.7634668 C13.8653808,11.5105407 13.7405541,11.9162576 13.6356195,12.186259 C13.4966495,12.5439189 13.330579,12.7991686 13.0624634,13.0672843 C12.7943477,13.3354303 12.5390676,13.5014704 12.1814381,13.6404708 C11.9114063,13.7454055 11.5056893,13.8702321 10.7586154,13.9042978 C9.95077069,13.9411618 9.70844768,13.9489787 7.66237402,13.9489787 C5.61630036,13.9489787 5.37397735,13.9411618 4.56613259,13.9042978 C3.81905869,13.8702321 3.41331137,13.7454055 3.14330994,13.6404708 C2.78568048,13.5014704 2.53040032,13.3354303 2.26228467,13.0672843 C1.99416903,12.7991686 1.82809853,12.5439189 1.68909814,12.186259 C1.5841939,11.9162576 1.45936729,11.5105407 1.42527113,10.7634668 C1.38840713,9.95550036 1.38062067,9.71314693 1.38062067,7.66722535 C1.38062067,5.62127335 1.38840713,5.37891992 1.42527113,4.5709535 C1.45936729,3.8238796 1.5841939,3.41816269 1.68909814,3.14816127 C1.82809853,2.79050139 1.99416903,2.53525164 2.26228467,2.267136 C2.53040032,1.99898994 2.78568048,1.83294986 3.14330994,1.69394947 C3.41331137,1.58901481 3.81905869,1.4641882 4.56610218,1.43012246 C5.37409901,1.39325846 5.61642202,1.38544158 7.66237402,1.38544158" id="Fill-1" fill="#FFFFFF" mask="url(#mask-2)"></path>
                </g>
                <path d="M7.66237402,10.2469145 C6.25177853,10.2469145 5.10823414,9.10340055 5.10823414,7.69280507 C5.10823414,6.28217917 6.25177853,5.13866519 7.66237402,5.13866519 C9.0729695,5.13866519 10.2164835,6.28217917 10.2164835,7.69280507 C10.2164835,9.10340055 9.0729695,10.2469145 7.66237402,10.2469145 M7.66237402,3.75805972 C5.4892838,3.75805972 3.72762867,5.51968444 3.72762867,7.69280507 C3.72762867,9.86589529 5.4892838,11.62752 7.66237402,11.62752 C9.83546424,11.62752 11.5971194,9.86589529 11.5971194,7.69280507 C11.5971194,5.51968444 9.83546424,3.75805972 7.66237402,3.75805972" id="Fill-4" fill="#FFFFFF"></path>
                <path d="M12.6720547,3.60259523 C12.6720547,4.11041812 12.2603763,4.52206612 11.7525839,4.52206612 C11.244761,4.52206612 10.8330826,4.11041812 10.8330826,3.60259523 C10.8330826,3.09477234 11.244761,2.68312434 11.7525839,2.68312434 C12.2603763,2.68312434 12.6720547,3.09477234 12.6720547,3.60259523" id="Fill-6" fill="#FFFFFF"></path>
            </g>
        </g>
    </g>
</svg>