<?xml version="1.0" encoding="UTF-8"?>
<svg width="13px" height="16px" viewBox="0 0 13 16" version="1.1" xmlns="http://www.w3.org/2000/svg" xmlns:xlink="http://www.w3.org/1999/xlink">
    <!-- Generator: Sketch 48.1 (47250) - http://www.bohemiancoding.com/sketch -->
    <title>Fill 4</title>
    <desc>Created with Sketch.</desc>
    <defs></defs>
    <g id="Social/Pinterest/Default" stroke="none" stroke-width="1" fill="none" fill-rule="evenodd" transform="translate(-14.000000, -12.000000)">
        <path d="M16.767914,27.7552581 C16.6805062,26.9569334 16.6003824,25.7303105 16.8028772,24.859146 C16.9864336,24.0710188 17.987253,19.8404807 17.987253,19.8404807 C17.987253,19.8404807 17.6856961,19.23591 17.6856961,18.3414368 C17.6856961,16.9370846 18.4985887,15.8881908 19.5125193,15.8881908 C20.3734863,15.8881908 20.7901302,16.5350086 20.7901302,17.3114814 C20.7901302,18.1768187 20.2380042,19.4719111 19.9539288,20.6723118 C19.7150141,21.6775016 20.4579805,22.4976782 21.4486024,22.4976782 C23.2433761,22.4976782 24.6229628,20.6052991 24.6229628,17.873805 C24.6229628,15.456979 22.8850041,13.7656378 20.4055358,13.7656378 C17.5327324,13.7656378 15.8457616,15.9202404 15.8457616,18.1476828 C15.8457616,19.0159337 16.1808249,19.9468269 16.5974688,20.4523354 C16.6805062,20.5513976 16.6921606,20.6402622 16.6673951,20.742238 C16.5901848,21.0612765 16.4197396,21.745971 16.3862333,21.8872803 C16.3425294,22.0708367 16.2405536,22.1101703 16.0497132,22.0213057 C14.7881271,21.4342165 14,19.5913685 14,18.1098061 C14,14.9252481 16.3133934,12 20.6706729,12 C24.1742693,12 26.8955659,14.495493 26.8955659,17.8315579 C26.8955659,21.3118456 24.7016298,24.1118092 21.6569243,24.1118092 C20.6327961,24.1118092 19.6713102,23.5800783 19.3420741,22.9521989 C19.3420741,22.9521989 18.8365656,24.8809979 18.7127379,25.3530001 C18.4854776,26.2299918 17.8692525,27.3284166 17.4584358,28 C17.0694406,27.9189437 16.9894559,27.8656206 16.767914,27.7552581 Z" id="Fill-4" fill="#FFFFFF"></path>
    </g>
</svg>