<?xml version="1.0" encoding="UTF-8"?>
<svg width="20px" height="16px" viewBox="0 0 20 16" version="1.1" xmlns="http://www.w3.org/2000/svg" xmlns:xlink="http://www.w3.org/1999/xlink">
    <!-- Generator: Sketch 48.1 (47250) - http://www.bohemiancoding.com/sketch -->
    <title>Fill 1</title>
    <desc>Created with Sketch.</desc>
    <defs></defs>
    <g id="Social/Twitter/Default" stroke="none" stroke-width="1" fill="none" fill-rule="evenodd" transform="translate(-10.000000, -12.000000)">
        <path d="M27.3680562,14.5300795 C28.2020542,14.030228 28.8425497,13.2385745 29.1440737,12.2954028 C28.3636544,12.7583109 27.4992664,13.0944018 26.5791392,13.2755898 C25.8423606,12.4905616 24.7926077,12 23.6308725,12 C21.4000126,12 19.5915167,13.8085679 19.5915167,16.0391398 C19.5915167,16.3557868 19.6272358,16.6640081 19.6960815,16.959627 C16.3391335,16.7911854 13.3628532,15.1831054 11.3706488,12.7393711 C11.0229636,13.3359379 10.8237719,14.0297959 10.8237719,14.7700312 C10.8237719,16.1713581 11.5368578,17.4077001 12.6206735,18.1320923 C11.9585738,18.1111361 11.3357218,17.9293719 10.7911494,17.6268397 C10.7908614,17.6436911 10.7907894,17.6606145 10.7907894,17.6776098 C10.7907894,19.6346713 12.1831144,21.2672362 14.0309302,21.638326 C13.6919587,21.7305764 13.3351277,21.7799062 12.9667744,21.7799062 C12.7064426,21.7799062 12.4534562,21.7546292 12.2068072,21.7074598 C12.7208454,23.3122271 14.2125503,24.4800115 15.98007,24.512706 C14.5976109,25.5960176 12.8560163,26.2416981 10.9635517,26.2416981 C10.6375429,26.2416981 10.3159989,26.2226143 10,26.1853109 C11.7876117,27.3313469 13.9107382,28 16.1917922,28 C23.6214387,28 27.6841992,21.8452232 27.6841992,16.507521 C27.6841992,16.3323821 27.6802384,16.1581795 27.6725328,15.984985 C28.4616659,15.4154957 29.1464501,14.7040661 29.6879979,13.8940489 C28.9636058,14.2153048 28.1852029,14.4325001 27.3680562,14.5300795 Z" id="Fill-1" fill="#FFFFFF"></path>
    </g>
</svg>