<?xml version="1.0" encoding="UTF-8"?>
<svg width="20px" height="15px" viewBox="0 0 20 15" version="1.1" xmlns="http://www.w3.org/2000/svg" xmlns:xlink="http://www.w3.org/1999/xlink">
    <!-- Generator: Sketch 48.1 (47250) - http://www.bohemiancoding.com/sketch -->
    <title>Page 1</title>
    <desc>Created with Sketch.</desc>
    <defs>
        <polygon id="path-1" points="19.9892172 7.0408728 19.9892172 14.0704501 0 14.0704501 0 7.0408728 0 0.011295499 19.9892172 0.011295499"></polygon>
    </defs>
    <g id="Social/YouTube/Default" stroke="none" stroke-width="1" fill="none" fill-rule="evenodd" transform="translate(-10.000000, -13.000000)">
        <g id="Page-1" transform="translate(10.000000, 13.000000)">
            <polygon id="Fill-1" fill="#000000" points="7.9300411 4.0255225 12.6666751 7.18843836 13.3312153 6.84352642"></polygon>
            <g id="Group-5" transform="translate(0.000000, 0.008278)">
                <mask id="mask-2" fill="white">
                    <use xlink:href="#path-1"></use>
                </mask>
                <g id="Clip-4"></g>
                <path d="M7.9309589,9.63368297 L7.93003914,4.01724462 L13.3312133,6.83524853 L7.9309589,9.63368297 Z M19.789589,3.04427006 C19.789589,3.04427006 19.5942661,1.66679452 18.9949511,1.06019961 C18.2348337,0.264035225 17.382818,0.260101761 16.9920939,0.21348728 C14.1948924,0.011295499 9.99894325,0.011295499 9.99894325,0.011295499 L9.9902544,0.011295499 C9.9902544,0.011295499 5.79440313,0.011295499 2.99710372,0.21348728 C2.60636008,0.260101761 1.75465753,0.264035225 0.994266145,1.06019961 C0.394931507,1.66679452 0.199902153,3.04427006 0.199902153,3.04427006 C0.199902153,3.04427006 0,4.66186301 0,6.27947554 L0,7.7959726 C0,9.41354599 0.199902153,11.0311389 0.199902153,11.0311389 C0.199902153,11.0311389 0.394931507,12.4086341 0.994266145,13.015229 C1.75465753,13.8113738 2.75348337,13.7862074 3.19833659,13.8696517 C4.79751468,14.022998 9.9946184,14.070454 9.9946184,14.070454 C9.9946184,14.070454 14.1948924,14.0641135 16.9920939,13.8619217 C17.382818,13.8153268 18.2348337,13.8113738 18.9949511,13.015229 C19.5942661,12.4086341 19.789589,11.0311389 19.789589,11.0311389 C19.789589,11.0311389 19.9892172,9.41354599 19.9892172,7.7959726 L19.9892172,6.27947554 C19.9892172,4.66186301 19.789589,3.04427006 19.789589,3.04427006 L19.789589,3.04427006 Z" id="Fill-3" fill="#FFFFFF" mask="url(#mask-2)"></path>
            </g>
        </g>
    </g>
</svg>