<svg viewBox="0 0 133 37" xmlns="http://www.w3.org/2000/svg"><path d="m56.786 5.066c.094323-.14503.27488-.21754.54166-.21754h.55272v-.077532c0-.6941.1824-1.2387.54719-1.6337.3648-.39505.87882-.61841 1.5421-.6701l.28741-.022152c.29478-.022152.50297.0092296.62457.094146s.1824.21598.1824.3932c0 .31751-.18055.49473-.54166.53165l-.28741.022152c-.339.022152-.58588.12553-.74064.31013s-.23214.45042-.23214.79747v.25475h.93962c.4127 0 .61905.17352.61905.52057s-.20635.52057-.61905.52057h-.93962v3.7769c0 .21414-.064483.37658-.19345.48734-.12897.11076-.29294.16614-.49192.16614s-.36479-.05538-.49745-.16614c-.13265-.11076-.19898-.27321-.19898-.48734v-3.7769h-.55272c-.26679 0-.44734-.072514-.54166-.21754-.094323.14503-.27488.21754-.54166.21754h-.93962v3.7769c0 .21414-.064483.37658-.19345.48734-.12897.11076-.29294.16614-.49192.16614s-.36479-.05538-.49745-.16614c-.13265-.11076-.19898-.27321-.19898-.48734v-3.7769h-.55272c-.4127 0-.61905-.17352-.61905-.52057s.20635-.52057.61905-.52057h.55272v-.077532c0-.6941.1824-1.2387.54719-1.6337.3648-.39505.87882-.61841 1.5421-.6701l.28741-.022152c.29478-.022152.50297.0092296.62457.094146s.1824.21598.1824.3932c0 .31751-.18055.49473-.54166.53165l-.28741.022152c-.339.022152-.58588.12553-.74064.31013s-.23214.45042-.23214.79747v.25475h.93962c.26679 0 .44734.072514.54166.21754zm-22.216-1.8154c3.0342 2.7438 3.2159 8.9963 3.3308 15.249-.11494 6.2525-.29662 12.505-3.3308 15.248-2.8105 2.9634-9.215 3.1395-15.62 3.253-6.4033-.11342-12.808-.28958-15.618-3.253-3.0342-2.7426-3.2159-8.9951-3.332-15.248.11618-6.2525.29786-12.505 3.332-15.249 2.8105-2.9622 9.215-3.1383 15.618-3.2505 6.4045.11221 12.809.28837 15.62 3.2505zm-23.534 9.7647 1.2866-2.7969 1.2643 2.8077-2.5509-.010859zm4.6409 2.0379c0-.080841-.019775-.16289-.058088-.24494l-2.6523-5.6058c-.058088-.12669-.14707-.22322-.26572-.28837-.11865-.067569-.24718-.10015-.3819-.10135-.13472 0-.26202.031371-.3819.097734-.11865.065156-.20763.16048-.26572.28596l-2.6918 5.5853c-.038314.080841-.059324.1641-.059324.24494 0 .14479.06056.26786.18292.36922.12112.10135.25707.15203.40538.15203.11.0012066.20887-.026545.29909-.079635.090222-.05309.16191-.13514.21381-.24856l.58459-1.2621 3.4025.013272.5747 1.2669c.050673.11463.12236.19788.21134.25097.090222.054296.18662.080841.28921.080841.15449.0012066.29291-.048264.41156-.14841.11988-.10015.18044-.22201.18168-.36801zm9.3248.32578c.11247.11101.26572.16651.45853.16772.18662 0 .33741-.054296.44988-.1641.1137-.1098.17056-.2558.17056-.43799l.022247-5.0954 1.7587.0072395c.38684.0012066.58088-.1641.58212-.49711.0012359-.33422-.19033-.50194-.57841-.50315l-4.7645-.019305c-.38684-.0012066-.58088.1653-.58212.49711-.0012359.33422.19157.50194.57841.50315l1.7587.0072395-.022246 5.0954c0 .18219.055616.32819.16809.4392zm-13.287 11.959-1.189-.0048263.019775-4.6707 1.189.0060329c1.5647.006033 2.3445.78549 2.3384 2.3384-.0061796 1.5601-.79222 2.3384-2.3581 2.3311zm-2.2803.83013c.10629.10135.25213.15203.43999.15324l1.9144.0072395c1.1136.0048264 1.9799-.28234 2.5979-.8615.61672-.57916.92818-1.3984.93312-2.4542.0049437-1.0509-.29909-1.869-.91211-2.453-.61302-.58278-1.4782-.87719-2.5917-.88202l-1.9144-.0084461c-.18662 0-.33246.04947-.43999.14962-.10629.10015-.16067.24132-.16067.42351l-.023482 5.5008c-.0012359.18219.050673.32457.15696.42472zm14.784-2.3443 1.2878-2.7969 1.2631 2.8077-2.5509-.010859zm4.6409 2.0367c0-.080841-.018539-.16168-.056852-.24494l-2.6535-5.6058c-.056852-.12669-.14584-.22201-.26449-.28837-.11988-.066362-.24718-.10015-.3819-.10015-.13472-.0012066-.26325.031371-.38314.097734-.11865.063949-.2064.15927-.26572.28596l-2.6918 5.5853c-.038314.080841-.058088.16289-.059324.24373 0 .14479.06056.26907.18292.36922.12112.10135.25707.15203.40538.15324.11 0 .21011-.026545.30033-.079635.090222-.05309.16191-.13634.21381-.24976l.58459-1.2621 3.4013.014479.57594 1.2669c.050673.11342.12112.19667.21134.25097.088986.05309.18539.080841.28921.080841.15449 0 .29168-.04947.41156-.14962s.18044-.22201.18044-.36801zm19.67-17.496c-.75907 0-1.4168-.16245-1.9732-.48734-.55641-.3249-.98568-.79009-1.2878-1.3956s-.45323-1.3144-.45323-2.1266.14923-1.5193.4477-2.1211.72774-1.0651 1.2878-1.39c.56009-.3249 1.2197-.48734 1.9787-.48734.75907 0 1.4168.16245 1.9732.48734.55641.3249.98384.78824 1.2823 1.39.29847.6018.4477 1.3088.4477 2.1211s-.15108 1.5211-.45323 2.1266-.73143 1.0707-1.2878 1.3956c-.55641.3249-1.2105.48734-1.9622.48734zm0-1.1408c.71485 0 1.2731-.24736 1.6747-.74209.40164-.49473.60246-1.2036.60246-2.1266 0-.92301-.20082-1.63-.60246-2.1211-.40164-.49104-.95989-.73656-1.6747-.73656-.72222 0-1.2841.24552-1.6858.73656s-.60246 1.1981-.60246 2.1211c0 .92301.20082 1.6319.60246 2.1266.40164.49473.96357.74209 1.6858.74209zm13.619 1.1076c-.19898 0-.36295-.057226-.49192-.17168-.12897-.11445-.19345-.27875-.19345-.49288v-4.2753c0-.21414.064483-.37658.19345-.48734.12897-.11076.29294-.16614.49192-.16614s.36479.05538.49745.16614c.13265.11076.19898.27321.19898.48734v4.2753c0 .21414-.066326.37843-.19898.49288-.13265.11445-.29847.17168-.49745.17168zm0-6.5792c-.25057 0-.44954-.068301-.59694-.20491s-.22109-.31567-.22109-.53719.073695-.39874.22109-.53165c.14739-.13291.34637-.19937.59694-.19937.2432 0 .44033.066455.59141.19937.15108.13291.22661.31013.22661.53165s-.073695.40058-.22109.53719-.34637.20491-.59694.20491zm4.5212 6.6013c-.53798 0-1.0115-.11445-1.4205-.34336-.40901-.22891-.72406-.5538-.94515-.97469s-.33163-.91192-.33163-1.4731c0-.56119.11607-1.0578.34821-1.4897.23214-.43197.55824-.76609.97831-1.0024s.90277-.35443 1.4481-.35443c.28742 0 .57667.040612.86777.12184s.54719.19198.76828.33228c.23583.15507.35374.35074.35374.58703 0 .16245-.03869.29351-.11607.3932s-.17871.14953-.304.14953c-.081066 0-.16582-.01846-.25425-.05538s-.17687-.081224-.26531-.13291c-.16213-.095993-.31689-.17168-.46428-.22706s-.31689-.08307-.5085-.08307c-.45692 0-.80881.14952-1.0557.44858s-.37032.72917-.37032 1.2904c0 .5538.12344.98023.37032 1.2793s.59878.44858 1.0557.44858c.18424 0 .34821-.02769.49192-.08307s.30399-.13107.48087-.22706c.11054-.066456.20635-.1163.28741-.14953s.16213-.049842.2432-.049842c.11791 0 .2174.051688.29847.15506.081066.10338.1216.2326.1216.38766 0 .12553-.027636.23444-.082908.32674s-.14555.17537-.27083.24921c-.22846.14768-.49376.26398-.79592.34889-.30215.084917-.61167.12737-.92857.12737zm3.6811-.022152c-.19898 0-.36295-.057226-.49192-.17168-.12897-.11445-.19345-.27875-.19345-.49288v-4.2753c0-.21414.064483-.37658.19345-.48734.12897-.11076.29294-.16614.49192-.16614s.36479.05538.49745.16614c.13265.11076.19898.27321.19898.48734v4.2753c0 .21414-.066326.37843-.19898.49288-.13265.11445-.29847.17168-.49745.17168zm0-6.5792c-.25057 0-.44954-.068301-.59694-.20491s-.22109-.31567-.22109-.53719.073695-.39874.22109-.53165c.14739-.13291.34637-.19937.59694-.19937.2432 0 .44033.066455.59141.19937.15108.13291.22661.31013.22661.53165s-.073695.40058-.22109.53719-.34637.20491-.59694.20491zm4.466.96361c.7517 0 1.3099.18644 1.6747.55934.3648.37289.54719.93961.54719 1.7002v2.7025c0 .19937-.058956.35628-.17687.47073s-.28004.17168-.48639.17168c-.19161 0-.34821-.059072-.46981-.17722s-.1824-.27321-.1824-.46519v-.24367c-.12528.28798-.32242.51319-.59141.67564s-.58035.24367-.9341.24367c-.36111 0-.68906-.073839-.98384-.22152-.29478-.14768-.52692-.35074-.69643-.60918-.1695-.25844-.25425-.54642-.25425-.86393 0-.39874.10133-.71256.304-.94146.20266-.22891.53245-.39504.98937-.49842s1.087-.15506 1.8903-.15506h.27636v-.25475c0-.36182-.07738-.62579-.23214-.79194-.15476-.16614-.40533-.24921-.7517-.24921-.21372 0-.43112.031382-.65221.094146s-.48271.15322-.78486.27136c-.19161.095993-.33163.14399-.42007.14399-.13265 0-.24135-.047996-.3261-.14399-.084751-.095993-.12713-.22152-.12713-.37658 0-.12553.03132-.23444.093962-.32674s.16766-.17906.31505-.26029c.25794-.1403.56561-.25106.92304-.33228.35743-.081225.70932-.12184 1.0557-.12184zm-.34269 4.6409c.36848 0 .66879-.12368.90093-.37105s.34821-.56672.34821-.95808v-.2326h-.19898c-.49376 0-.87698.022152-1.1497.066456s-.46797.12184-.58588.2326-.17687.26213-.17687.45412c0 .23629.082907.43012.24872.58149.16582.15137.37032.22706.61352.22706zm4.6539.97469c-.19898 0-.36295-.057226-.49192-.17168-.12897-.11445-.19345-.27875-.19345-.49288v-6.6124c0-.21414.064483-.37658.19345-.48734.12897-.11076.29294-.16614.49192-.16614s.36479.05538.49745.16614c.13265.11076.19898.27321.19898.48734v6.6124c0 .21414-.066326.37843-.19898.49288-.13265.11445-.29847.17168-.49745.17168zm12.16-7.9304c.20635 0 .37216.064609.49745.19383s.18792.3009.18792.51503v6.557c0 .20675-.058956.3692-.17687.48734s-.27267.17722-.46428.17722-.34269-.059072-.45323-.17722-.16582-.28059-.16582-.48734v-4.5633l-1.8792 3.5665c-.088436.16245-.18424.28244-.28741.35997-.10317.077533-.22477.1163-.36479.1163s-.26162-.03692-.36479-.11076-.19898-.19568-.28741-.36551l-1.8903-3.5111v4.5079c0 .19937-.057114.35997-.17134.48181s-.26715.18275-.45876.18275-.34269-.059072-.45323-.17722c-.11054-.11814-.16582-.28059-.16582-.48734v-6.557c0-.21414.060798-.38581.1824-.51503s.28557-.19383.49192-.19383c.28742 0 .51219.15875.67432.47627l2.4541 4.6852 2.443-4.6852c.16213-.31751.37953-.47627.65221-.47627zm6.5331 6.3798c.12528 0 .22661.047996.304.14399s.11607.22521.11607.38766c0 .22891-.13634.42089-.40901.57595-.25057.1403-.53429.2529-.85119.33782-.31689.084917-.61904.12737-.90646.12737-.86962 0-1.5587-.25105-2.0672-.75317s-.76275-1.1888-.76275-2.0601c0-.5538.11054-1.0448.33163-1.4731.22109-.42827.53245-.76055.9341-.99684s.85671-.35443 1.3652-.35443c.4864 0 .91014.10707 1.2713.3212.36111.21414.64115.51688.84013.90823s.29847.85285.29847 1.3845c0 .31751-.14002.47627-.42007.47627h-3.261c.044218.5095.18792.88423.43112 1.1242s.59693.35997 1.0612.35997c.23583 0 .44402-.029536.62457-.088608.18056-.059072.38506-.1403.61352-.24367.22109-.11814.38322-.17722.48639-.17722zm-1.9124-3.0902c-.37585 0-.67616.11814-.90093.35443s-.35927.57595-.40348 1.019h2.4983c-.014739-.45043-.12528-.79193-.33163-1.0245s-.49376-.34889-.86224-.34889zm9.9268-.97469c.58957 0 1.041.17537 1.3542.52611.31321.35074.46981.91746.46981 1.7002v2.7247c0 .21414-.064483.37843-.19345.49288-.12897.11445-.29662.17168-.50298.17168-.19898 0-.36295-.057226-.49192-.17168-.12897-.11445-.19345-.27875-.19345-.49288v-2.7247c0-.40612-.071853-.69594-.21556-.86947-.14371-.17353-.36295-.26029-.65774-.26029-.36111 0-.64852.12368-.86224.37105s-.32058.58518-.32058 1.0135v2.47c0 .21414-.064484.37843-.19345.49288-.12897.11445-.29294.17168-.49192.17168s-.36479-.057226-.49745-.17168c-.13265-.11445-.19898-.27875-.19898-.49288v-2.7247c0-.40612-.071853-.69594-.21556-.86947-.14371-.17353-.36295-.26029-.65774-.26029-.36111 0-.64668.12368-.85672.37105-.21003.24737-.31505.58518-.31505 1.0135v2.47c0 .21414-.066325.37843-.19898.49288-.13265.11445-.29847.17168-.49745.17168s-.36295-.057226-.49192-.17168c-.12897-.11445-.19345-.27875-.19345-.49288v-4.2864c0-.20675.066326-.36551.19898-.47627.13265-.11076.29847-.16614.49745-.16614.19161 0 .34821.053534.46981.1606.1216.10707.1824.26029.1824.45965v.26582c.1695-.29536.39611-.52057.67984-.67564s.60983-.2326.97831-.2326c.81066 0 1.3523.33966 1.625 1.019.16213-.31013.40164-.55749.71853-.74209s.67432-.2769 1.0723-.2769zm6.3342 0c.47166 0 .88803.11445 1.2491.34336s.643.5538.84566.97469.304.91192.304 1.4731-.10133 1.0578-.304 1.4897c-.20266.43197-.48639.76609-.85119 1.0024-.3648.23629-.77933.35443-1.2436.35443-.39059 0-.7388-.084915-1.0446-.25475-.30584-.16983-.53982-.40612-.70195-.70887v.2769c0 .19937-.062641.35812-.18792.47627s-.2911.17722-.49745.17722-.37032-.059072-.49192-.17722-.1824-.2769-.1824-.47627v-6.6235c0-.19199.064483-.34705.19345-.46519.12897-.11814.29662-.17722.50298-.17722.20635 0 .37216.05538.49745.16614.12528.11076.18792.26213.18792.45412v2.6139c.16213-.29536.39427-.52242.69643-.68118s.64484-.23813 1.0281-.23813zm-.3648 4.5633c.43481 0 .77381-.15506 1.017-.46519.2432-.31013.3648-.74578.3648-1.307 0-.5538-.11976-.97838-.35927-1.2737-.23951-.29536-.58035-.44304-1.0225-.44304-.44218 0-.78302.14952-1.0225.44858s-.35927.72917-.35927 1.2904c0 .56119.11975.99315.35927 1.2959.23951.30275.58035.45412 1.0225.45412zm8.1802-.49842c.12528 0 .22662.047996.304.14399s.11607.22521.11607.38766c0 .22891-.13634.42089-.40901.57595-.25057.1403-.53429.2529-.85119.33782-.31689.084917-.61904.12737-.90646.12737-.86962 0-1.5587-.25105-2.0672-.75317s-.76275-1.1888-.76275-2.0601c0-.5538.11054-1.0448.33163-1.4731s.53245-.76055.9341-.99684c.40164-.23629.85671-.35443 1.3652-.35443.4864 0 .91014.10707 1.2713.3212.36111.21414.64115.51688.84013.90823s.29847.85285.29847 1.3845c0 .31751-.14002.47627-.42007.47627h-3.261c.044218.5095.18792.88423.43112 1.1242.2432.23998.59694.35997 1.0612.35997.23583 0 .44402-.029536.62457-.088608.18056-.059072.38506-.1403.61352-.24367.22109-.11814.38322-.17722.48639-.17722zm-1.9124-3.0902c-.37585 0-.67616.11814-.90093.35443s-.35927.57595-.40348 1.019h2.4983c-.01474-.45043-.12528-.79193-.33163-1.0245-.20635-.2326-.49376-.34889-.86224-.34889zm6.5221-.95254c.19161-.014768.34268.025844.45323.12184.11054.095993.16582.23998.16582.43196 0 .19937-.047902.34705-.14371.44304-.095805.095993-.26899.15876-.51956.18829l-.33163.033228c-.43481.044304-.75354.19198-.9562.44304s-.304.56488-.304.94146v2.326c0 .21414-.066326.37843-.19898.49288-.13265.11445-.29847.17168-.49745.17168s-.36295-.057226-.49192-.17168c-.12897-.11445-.19345-.27875-.19345-.49288v-4.2864c0-.20675.064484-.36551.19345-.47627.12897-.11076.28926-.16614.48087-.16614s.34637.053534.46428.1606c.11791.10707.17687.26029.17687.45965v.44304c.14002-.3249.34821-.57595.62457-.75317s.58404-.2769.92304-.29905l.15476-.011076zm-75.52 19.055-.56062-1.3054h-2.7083l-.56062 1.3054h-1.0265l2.5188-5.5776h.82908l2.5188 5.5776h-1.0107zm-2.9373-2.0965h2.0372l-1.0186-2.3734zm9.1988-1.8671c.43691 0 .76328.13054.9791.39162s.32374.6606.32374 1.1986v2.3734h-.987v-2.3339c0-.29536-.050008-.51029-.15002-.64478s-.26057-.20174-.48166-.20174c-.2632 0-.46849.089662-.61589.26899-.14739.17933-.22109.42985-.22109.75159v2.1598h-.987v-2.3339c0-.29536-.048691-.51029-.14608-.64478-.097384-.1345-.25925-.20174-.4856-.20174-.25794 0-.4606.089662-.60799.26899s-.22109.42985-.22109.75159v2.1598h-.987v-3.8687h.96331v.54589c.11581-.21097.27636-.37052.48166-.47864s.43954-.16218.70274-.16218c.58431 0 .97121.24262 1.1607.72785.12107-.2268.29478-.4048.52114-.53402.22635-.12922.47902-.19383.75801-.19383zm5.8509 2.2073h-2.6294c.031584.35865.13949.625.32374.79906s.44744.26108.7896.26108c.42639 0 .81592-.13713 1.1686-.4114l.28426.68038c-.17898.14768-.40401.26635-.67511.35601-.2711.089664-.54351.13449-.81723.13449-.63168 0-1.1304-.17932-1.4963-.53798-.36585-.35865-.54877-.84916-.54877-1.4715 0-.39557.078959-.74631.23688-1.0522s.38032-.54325.66721-.71203.61194-.25317.97515-.25317c.53167 0 .95146.17141 1.2594.51424s.46192.81488.46192 1.4161v.2769zm-1.6976-1.5111c-.2632 0-.47507.084388-.63563.25317-.16055.16878-.25925.41139-.2961.72785h1.7845c-.010528-.32173-.089487-.56567-.23688-.73181-.14739-.16614-.35269-.24921-.61589-.24921zm5.2035.12658-.57641.05538c-.65274.068566-.9791.40084-.9791.99684v2.0886h-.987v-3.8687h.93962v.68038c.20003-.46414.61325-.7173 1.2397-.7595l.30005-.023734.063168.8307zm.63958 3.1408v-3.8687h.987v3.8687zm-.055272-5.6646h1.0896v.97311h-1.0896zm3.9796 5.7279c-.40533 0-.7567-.081751-1.0541-.24525-.29742-.1635-.52508-.39557-.683-.69621s-.23688-.65137-.23688-1.0522.082907-.75554.24872-1.0641c.16582-.30855.40138-.54721.70669-.71599s.658-.25317 1.0581-.25317c.27373 0 .54087.043512.80144.13054.26057.087026.46981.20438.62773.35206l-.28426.69621c-.16318-.13186-.33558-.23207-.51719-.30063-.18161-.068566-.3619-.10285-.54088-.10285-.34216 0-.60799.1068-.79749.32041s-.28426.52083-.28426.92168c0 .39557.094751.70016.28426.91377.1895.21361.45533.32041.79749.32041.17898 0 .35927-.034283.54088-.10285.18161-.068566.354-.16878.51719-.30063l.28426.6883c-.16845.15296-.38427.27294-.64747.35997-.2632.087026-.53693.13054-.82118.13054zm3.9085-4.0269c.54219 0 .94489.13186 1.2081.39557.2632.26372.3948.66983.3948 1.2184v2.3497h-.93962v-.59336c-.089488.2057-.2303.36656-.42244.4826s-.41454.17405-.66721.17405c-.25794 0-.49218-.052742-.70274-.15823s-.37637-.25053-.49745-.43513c-.12107-.1846-.18161-.3903-.18161-.61709 0-.28481.072379-.50897.21714-.67247.14476-.1635.38032-.28217.70669-.35601s.77644-.11076 1.3502-.11076h.1974v-.18196c0-.26372-.056587-.45359-.16976-.56962-.11318-.11604-.30136-.17405-.56456-.17405-.2053 0-.4198.035601-.64352.1068-.22372.071203-.44349.1701-.65931.29668l-.27636-.68038c.21582-.13713.47639-.25053.7817-.34019.30531-.089664.59483-.13449.86856-.13449zm-.22898 3.3149c.2632 0 .47771-.088344.64352-.26503.16582-.17669.24872-.4048.24872-.68434v-.16614h-.14213c-.35269 0-.62641.015823-.82118.047469s-.33426.087025-.41849.16614c-.084224.079115-.12634.18724-.12634.32437 0 .16878.057903.30723.17371.41535s.2632.16218.44218.16218zm5.235-3.3149c.46323 0 .80802.13186 1.0344.39557.22635.26372.33953.66192.33953 1.1946v2.3734h-.987v-2.3181c0-.30064-.056587-.51952-.16976-.65665-.11318-.13713-.29083-.2057-.53298-.2057-.28426 0-.51192.089662-.683.26899s-.25662.4193-.25662.71994v2.1915h-.987v-3.8687h.96331v.57754c.1316-.21625.30794-.38239.52903-.49842s.47113-.17405.75012-.17405zm6.3879 3.9636v-4.739h-1.8161v-.83861h4.6507v.83861h-1.8161v4.739h-1.0186zm6.3721-1.7563h-2.6294c.031584.35865.13949.625.32374.79906s.44744.26108.7896.26108c.42639 0 .81592-.13713 1.1686-.4114l.28426.68038c-.17898.14768-.40401.26635-.67511.35601-.2711.089664-.54351.13449-.81723.13449-.63168 0-1.1304-.17932-1.4963-.53798-.36585-.35865-.54877-.84916-.54877-1.4715 0-.39557.078959-.74631.23688-1.0522s.38032-.54325.66721-.71203.61194-.25317.97515-.25317c.53167 0 .95146.17141 1.2594.51424s.46192.81488.46192 1.4161v.2769zm-1.6976-1.5111c-.2632 0-.47507.084388-.63563.25317-.16055.16878-.25925.41139-.2961.72785h1.7845c-.010528-.32173-.089487-.56567-.23688-.73181s-.35269-.24921-.61589-.24921zm2.6609 3.2674v-5.5776h.987v5.5776zm5.5509-1.7563h-2.6294c.031584.35865.13949.625.32374.79906.18424.17405.44744.26108.7896.26108.42639 0 .81592-.13713 1.1686-.4114l.28426.68038c-.17898.14768-.40401.26635-.67511.35601-.2711.089664-.54351.13449-.81723.13449-.63168 0-1.1304-.17932-1.4963-.53798-.36585-.35865-.54877-.84916-.54877-1.4715 0-.39557.078959-.74631.23688-1.0522.15792-.30591.38032-.54325.66721-.71203s.61194-.25317.97515-.25317c.53167 0 .95146.17141 1.2594.51424s.46192.81488.46192 1.4161v.2769zm-1.6976-1.5111c-.2632 0-.47507.084388-.63563.25317-.16055.16878-.25925.41139-.2961.72785h1.7845c-.010528-.32173-.089487-.56567-.23688-.73181s-.35269-.24921-.61589-.24921zm2.7478-2.3101h2.053c.91068 0 1.6174.24393 2.1201.73181s.75407 1.1722.75407 2.053c0 .88081-.25135 1.5665-.75407 2.057s-1.2094.73576-2.1201.73576h-2.053v-5.5776zm1.9898 4.7469c1.2792 0 1.9187-.65401 1.9187-1.962 0-1.3028-.63957-1.9541-1.9187-1.9541h-.97121v3.9162h.97121zm7.4222-.92564h-2.6294c.031584.35865.1395.625.32374.79906.18424.17405.44744.26108.7896.26108.42638 0 .81592-.13713 1.1686-.4114l.28426.68038c-.17898.14768-.40401.26635-.67511.35601-.2711.089664-.5435.13449-.81723.13449-.63168 0-1.1304-.17932-1.4963-.53798-.36585-.35865-.54877-.84916-.54877-1.4715 0-.39557.078959-.74631.23688-1.0522.15792-.30591.38032-.54325.66721-.71203s.61194-.25317.97515-.25317c.53167 0 .95146.17141 1.2594.51424s.46192.81488.46192 1.4161v.2769zm-1.6976-1.5111c-.2632 0-.47507.084388-.63563.25317-.16055.16878-.25925.41139-.2961.72785h1.7845c-.010528-.32173-.089487-.56567-.23688-.73181-.14739-.16614-.35269-.24921-.61589-.24921zm4.9034-.69621c.46323 0 .80802.13186 1.0344.39557.22635.26372.33953.66192.33953 1.1946v2.3734h-.987v-2.3181c0-.30064-.056587-.51952-.16976-.65665-.11318-.13713-.29083-.2057-.53298-.2057-.28426 0-.51192.089662-.683.26899-.17108.17933-.25662.4193-.25662.71994v2.1915h-.987v-3.8687h.96331v.57754c.1316-.21625.30794-.38239.52903-.49842s.47113-.17405.75012-.17405zm4.5086 3.2832c.11581 0 .23688-.0079114.36322-.023734l-.047376.73576c-.15792.015823-.30268.023734-.43428.023734-.54219 0-.94225-.12526-1.2002-.37579-.25794-.25053-.3869-.62368-.3869-1.1195v-1.6851h-.74222v-.74368h.74222v-1.1551h.987v1.1551h1.0186v.74368h-1.0186v1.6693c0 .51688.23951.77532.71854.77532zm1.0975.68038v-3.8687h.987v3.8687zm-.055271-5.6646h1.0896v.97311h-1.0896zm3.64 5.7279c-.34216 0-.65668-.042194-.94357-.12658-.28689-.084389-.53035-.2057-.73038-.36393l.27636-.6883c.41059.30064.88172.45095 1.4134.45095.22635 0 .39875-.03692.51719-.11076s.17766-.17933.17766-.31646c0-.11604-.040795-.2057-.12239-.26899-.081592-.063292-.22767-.12131-.43823-.17405l-.63168-.14241c-.35795-.079115-.62378-.20833-.79749-.38766s-.26057-.41139-.26057-.69621c0-.23734.067115-.447.20135-.62896.13423-.18196.3211-.32305.56062-.42326.23951-.10021.51718-.15032.83303-.15032.27373 0 .53824.042194.79355.12658.2553.084389.48034.20306.67511.35601l-.27636.67247c-.40006-.29009-.80012-.43513-1.2002-.43513-.21582 0-.38427.039557-.50534.11867-.12107.079115-.18161.18987-.18161.33228 0 .10549.038164.19251.11449.26108.076329.068566.19872.12131.36716.15823l.65537.15032c.38427.084389.66589.21756.84487.39953.17898.18196.26846.42062.26846.71599 0 .35865-.14476.64346-.43428.85444-.28952.21097-.68168.31646-1.1765.31646zm4.5007-.74368c.11581 0 .23688-.0079114.36322-.023734l-.047376.73576c-.15792.015823-.30268.023734-.43428.023734-.54219 0-.94225-.12526-1.2002-.37579s-.3869-.62368-.3869-1.1195v-1.6851h-.74222v-.74368h.74222v-1.1551h.987v1.1551h1.0186v.74368h-1.0186v1.6693c0 .51688.23951.77532.71854.77532zm3.64-2.4605-.57641.05538c-.65274.068566-.9791.40084-.9791.99684v2.0886h-.987v-3.8687h.93962v.68038c.20003-.46414.61325-.7173 1.2397-.7595l.30005-.023734.063168.8307zm3.5848-.71994h.97121l-2.3214 5.2848h-.99489l.70274-1.5744-1.6108-3.7105h1.0423l1.0896 2.7294 1.1212-2.7294zm-82.955 14.937-.56062-1.3054h-2.7083l-.56062 1.3054h-1.0265l2.5188-5.5776h.82908l2.5188 5.5776h-1.0107zm-2.9373-2.0965h2.0372l-1.0186-2.3734zm5.9694 2.1598c-.34216 0-.65668-.042194-.94357-.12658-.28689-.084389-.53035-.2057-.73038-.36393l.27636-.6883c.41059.30064.88172.45095 1.4134.45095.22635 0 .39875-.03692.51719-.11076s.17766-.17933.17766-.31646c0-.11604-.040796-.2057-.12239-.26899-.081592-.063292-.22767-.12131-.43823-.17405l-.63168-.14241c-.35795-.079115-.62378-.20833-.79749-.38766s-.26057-.41139-.26057-.69621c0-.23734.067115-.447.20135-.62896.13423-.18196.3211-.32305.56062-.42326.23951-.10021.51719-.15032.83303-.15032.27373 0 .53824.042194.79355.12658.2553.084389.48034.20306.67511.35601l-.27636.67247c-.40007-.29009-.80012-.43513-1.2002-.43513-.21582 0-.38427.039557-.50534.11867s-.18161.18987-.18161.33228c0 .10549.038164.19251.11449.26108.076328.068566.19871.12131.36716.15823l.65537.15032c.38427.084389.66589.21756.84487.39953.17898.18196.26846.42062.26846.71599 0 .35865-.14476.64346-.43428.85444-.28952.21097-.68168.31646-1.1765.31646zm3.9875 0c-.34216 0-.65668-.042194-.94357-.12658-.28689-.084389-.53035-.2057-.73038-.36393l.27636-.6883c.41059.30064.88172.45095 1.4134.45095.22635 0 .39875-.03692.51719-.11076s.17766-.17933.17766-.31646c0-.11604-.040796-.2057-.12239-.26899-.081592-.063292-.22767-.12131-.43823-.17405l-.63168-.14241c-.35795-.079115-.62378-.20833-.79749-.38766s-.26057-.41139-.26057-.69621c0-.23734.067115-.447.20135-.62896.13423-.18196.3211-.32305.56062-.42326.23951-.10021.51719-.15032.83303-.15032.27373 0 .53824.042194.79355.12658.2553.084389.48034.20306.67511.35601l-.27636.67247c-.40007-.29009-.80012-.43513-1.2002-.43513-.21582 0-.38427.039557-.50534.11867s-.18161.18987-.18161.33228c0 .10549.038164.19251.11449.26108.076328.068566.19871.12131.36716.15823l.65537.15032c.38427.084389.66589.21756.84487.39953.17898.18196.26846.42062.26846.71599 0 .35865-.14476.64346-.43428.85444-.28952.21097-.68168.31646-1.1765.31646zm4.327 0c-.3948 0-.74091-.081751-1.0383-.24525-.29742-.1635-.52771-.39821-.6909-.70412-.16318-.30591-.24478-.66192-.24478-1.068 0-.40612.081591-.76082.24478-1.0641.16318-.30327.39348-.53666.6909-.70016s.64352-.24525 1.0383-.24525.74091.081751 1.0383.24525c.29742.1635.5264.39689.68695.70016s.24083.65797.24083 1.0641c0 .40612-.080275.76213-.24083 1.068-.16055.30591-.38953.54061-.68695.70412-.29742.1635-.64352.24525-1.0383.24525zm-.007896-.76741c.32111 0 .56588-.10548.73433-.31646.16845-.21097.25267-.52215.25267-.93355 0-.40612-.084223-.71598-.25267-.92959s-.41059-.32041-.72643-.32041-.5593.1068-.73038.32041-.25662.52347-.25662.92959c0 .4114.084223.72258.25267.93355.16845.21097.41059.31646.72643.31646zm4.706.76741c-.40533 0-.7567-.081751-1.0541-.24525-.29742-.1635-.52508-.39557-.683-.69621s-.23688-.65137-.23688-1.0522.082907-.75554.24872-1.0641c.16582-.30855.40138-.54721.70669-.71599s.658-.25317 1.0581-.25317c.27373 0 .54087.043512.80144.13054s.46981.20438.62773.35206l-.28426.69621c-.16318-.13186-.33558-.23207-.51719-.30063-.18161-.068566-.3619-.10285-.54088-.10285-.34216 0-.60799.1068-.79749.32041s-.28426.52083-.28426.92168c0 .39557.094751.70016.28426.91377.1895.21361.45533.32041.79749.32041.17898 0 .35927-.034283.54088-.10285.18161-.068566.354-.16878.51719-.30063l.28426.6883c-.16845.15296-.38427.27294-.64747.35997-.2632.087026-.53693.13054-.82118.13054zm2.2504-.063292v-3.8687h.987v3.8687zm-.055272-5.6646h1.0896v.97311h-1.0896zm3.8769 1.701c.54219 0 .94489.13186 1.2081.39557.2632.26372.3948.66983.3948 1.2184v2.3497h-.93962v-.59336c-.089488.2057-.2303.36656-.42244.4826s-.41454.17405-.66721.17405c-.25794 0-.49218-.052742-.70274-.15823s-.37637-.25053-.49745-.43513c-.12107-.1846-.18161-.3903-.18161-.61709 0-.28481.072379-.50897.21714-.67247.14476-.1635.38032-.28217.70669-.35601s.77644-.11076 1.3502-.11076h.1974v-.18196c0-.26372-.056587-.45359-.16976-.56962-.11318-.11604-.30136-.17405-.56456-.17405-.2053 0-.4198.035601-.64352.1068-.22372.071203-.44349.1701-.65931.29668l-.27636-.68038c.21582-.13713.47639-.25053.7817-.34019.30531-.089664.59483-.13449.86856-.13449zm-.22898 3.3149c.2632 0 .47771-.088344.64352-.26503.16582-.17669.24872-.4048.24872-.68434v-.16614h-.14213c-.35269 0-.62641.015823-.82118.047469s-.33426.087026-.41849.16614-.12634.18724-.12634.32437c0 .16878.057903.30723.17371.41535.11581.10812.2632.16218.44218.16218zm4.9666-.031646c.11581 0 .23688-.0079114.36322-.023734l-.047376.73576c-.15792.015823-.30268.023734-.43428.023734-.54219 0-.94225-.12526-1.2002-.37579-.25794-.25053-.3869-.62368-.3869-1.1195v-1.6851h-.74222v-.74368h.74222v-1.1551h.987v1.1551h1.0186v.74368h-1.0186v1.6693c0 .51688.23951.77532.71853.77532zm1.0975.68038v-3.8687h.987v3.8687zm-.055272-5.6646h1.0896v.97311h-1.0896zm3.9796 5.7279c-.3948 0-.74091-.081751-1.0383-.24525-.29742-.1635-.52771-.39821-.6909-.70412-.16318-.30591-.24478-.66192-.24478-1.068 0-.40612.081591-.76082.24478-1.0641.16318-.30327.39348-.53666.6909-.70016s.64352-.24525 1.0383-.24525c.3948 0 .74091.081751 1.0383.24525.29742.1635.5264.39689.68695.70016s.24083.65797.24083 1.0641c0 .40612-.080275.76213-.24083 1.068-.16055.30591-.38953.54061-.68695.70412-.29742.1635-.64352.24525-1.0383.24525zm-.007896-.76741c.3211 0 .56588-.10548.73433-.31646.16845-.21097.25267-.52215.25267-.93355 0-.40612-.084223-.71598-.25267-.92959-.16845-.21361-.41059-.32041-.72643-.32041s-.5593.1068-.73038.32041-.25662.52347-.25662.92959c0 .4114.084223.72258.25267.93355.16845.21097.41059.31646.72643.31646zm5.1877-3.2595c.46323 0 .80802.13186 1.0344.39557.22635.26372.33953.66192.33953 1.1946v2.3734h-.987v-2.3181c0-.30064-.056587-.51952-.16976-.65665-.11318-.13713-.29083-.2057-.53298-.2057-.28426 0-.51192.089662-.683.26899-.17108.17933-.25662.4193-.25662.71994v2.1915h-.987v-3.8687h.96331v.57754c.1316-.21625.30794-.38239.52903-.49842.22109-.11604.47113-.17405.75012-.17405z" fill-rule="evenodd"/></svg>