<svg viewBox="0 0 93.04 31.24" xmlns="http://www.w3.org/2000/svg"><g fill="#5700ff"><g transform="translate(-3581.67 -425.77)"><path d="m3588 448.38c-6-1.62-6-4.66-6-6.5 0-2.95 3.59-5.68 7.78-5.68 4 0 8.16 1.75 8.21 6.62h-5.6c0-1.5-1.32-1.75-2.26-1.75-1.28 0-2.14.6-2.09 1.5 0 .6.56 1.2 1.75 1.5l3.38.9c4.83 1.32 5.43 4.53 5.43 5.81 0 4.23-4.44 6.24-8.63 6.24s-8.29-2.44-8.33-6.88h5.56a2.81 2.81 0 0 0 2.95 2.31c1.32 0 2.44-.64 2.44-1.67 0-.85-.51-1.33-2-1.71z"/><path d="m3619.75 446v10.56h-5.94v-10.74c0-2.52-1.58-3.85-3.29-3.85s-3.46 1-3.46 4.06v10.56h-5.94v-20h5.94v2.91a5.71 5.71 0 0 1 5.21-3.29c3.16 0 5.3 1.2 6.41 3.5a6.83 6.83 0 0 1 6-3.55c4.74 0 7.69 3 7.69 9.06v11.33h-5.9v-10.6c0-2.61-1.54-4-3.29-4s-3.42 1.15-3.42 4.06"/><path d="m3638.86 425.77a3.49 3.49 0 1 1 0 7 3.49 3.49 0 1 1 0-7m2.95 30.81h-5.9v-20h5.9z"/></g><path d="m63.89 0h5.94v30.81h-5.94z"/><path d="m3673.6 453c-2 3-5.73 4.06-9.1 4.06a10.16 10.16 0 0 1 -10.43-10.47 10.06 10.06 0 0 1 10.43-10.34c5.68 0 10.21 4.23 10.21 10.51 0 .51 0 1.33-.09 1.84h-14.62c.3 2.31 2.82 3.33 4.91 3.33a5.52 5.52 0 0 0 4.36-1.88zm-4.87-8.12a4 4 0 0 0 -4.19-3.42 4.36 4.36 0 0 0 -4.44 3.42z" transform="translate(-3581.67 -425.77)"/></g></svg>